<svg width="30" height="30" viewBox="0 0 30 30" fill="none" xmlns="http://www.w3.org/2000/svg">
<path d="M11.25 25H7.5C7.16848 25 6.85054 24.9042 6.61612 24.7337C6.3817 24.5632 6.25 24.332 6.25 24.0909V5.90909C6.25 5.66799 6.3817 5.43675 6.61612 5.26627C6.85054 5.09578 7.16848 5 7.5 5H11.25C11.5815 5 11.8995 5.09578 12.1339 5.26627C12.3683 5.43675 12.5 5.66799 12.5 5.90909V24.0909C12.5 24.332 12.3683 24.5632 12.1339 24.7337C11.8995 24.9042 11.5815 25 11.25 25Z" fill="#BDBDBD"/>
<path d="M22.5 25H18.75C18.4185 25 18.1005 24.9042 17.8661 24.7337C17.6317 24.5632 17.5 24.332 17.5 24.0909V5.90909C17.5 5.66799 17.6317 5.43675 17.8661 5.26627C18.1005 5.09578 18.4185 5 18.75 5H22.5C22.8315 5 23.1495 5.09578 23.3839 5.26627C23.6183 5.43675 23.75 5.66799 23.75 5.90909V24.0909C23.75 24.332 23.6183 24.5632 23.3839 24.7337C23.1495 24.9042 22.8315 25 22.5 25Z" fill="#BDBDBD"/>
</svg>
