<svg width="78" height="78" viewBox="0 0 78 78" fill="none" xmlns="http://www.w3.org/2000/svg">
<g filter="url(#filter0_d_3_3393)">
<path d="M45.508 64.2328L47.1327 64.2667L45.508 64.2328ZM32.492 64.2328L30.8673 64.2667L32.492 64.2328ZM28.9848 49.5096L30.2689 48.5137L28.9848 49.5096ZM50.6874 48.1109L51.6623 49.4109L50.6874 48.1109ZM48.2827 50.9789L49.7846 51.5995L48.2827 50.9789ZM49.0152 49.5096L50.2994 50.5054L49.0152 49.5096ZM56.875 32.5C56.875 38.3522 54.0644 43.5474 49.7125 46.8108L51.6623 49.4109C56.7974 45.5603 60.125 39.4185 60.125 32.5H56.875ZM39 14.625C48.8721 14.625 56.875 22.6279 56.875 32.5H60.125C60.125 20.833 50.667 11.375 39 11.375V14.625ZM21.125 32.5C21.125 22.6279 29.1279 14.625 39 14.625V11.375C27.333 11.375 17.875 20.833 17.875 32.5H21.125ZM28.2875 46.8108C23.9356 43.5474 21.125 38.3522 21.125 32.5H17.875C17.875 39.4185 21.2026 45.5603 26.3377 49.4109L28.2875 46.8108ZM34.1166 64.1988C34.0171 59.4339 33.0302 54.7414 31.2191 50.3584L28.2154 51.5995C29.873 55.611 30.7762 59.9058 30.8673 64.2667L34.1166 64.1988ZM44.0871 63.8897C40.8847 65.4909 37.1153 65.4909 33.9129 63.8897L32.4595 66.7966C36.5768 68.8552 41.4232 68.8552 45.5405 66.7966L44.0871 63.8897ZM46.7809 50.3584C44.9698 54.7414 43.9829 59.4339 43.8834 64.1988L47.1327 64.2667C47.2238 59.9058 48.127 55.611 49.7846 51.5995L46.7809 50.3584ZM45.5405 66.7966C46.5177 66.308 47.1106 65.3207 47.1327 64.2667L43.8834 64.1988C43.8857 64.085 43.951 63.9577 44.0871 63.8897L45.5405 66.7966ZM30.8673 64.2667C30.8894 65.3207 31.4823 66.308 32.4595 66.7966L33.9129 63.8897C34.049 63.9577 34.1143 64.085 34.1166 64.1988L30.8673 64.2667ZM26.3377 49.4109C27.373 50.1873 27.6024 50.3787 27.7006 50.5054L30.2689 48.5137C29.8306 47.9486 29.1241 47.4382 28.2875 46.8108L26.3377 49.4109ZM31.2191 50.3584C30.9371 49.6758 30.6999 49.0695 30.2689 48.5137L27.7006 50.5054C27.8062 50.6414 27.8785 50.7841 28.2154 51.5995L31.2191 50.3584ZM49.7125 46.8108C48.8759 47.4382 48.1694 47.9486 47.7311 48.5138L50.2994 50.5054C50.3976 50.3787 50.627 50.1873 51.6623 49.4109L49.7125 46.8108ZM49.7846 51.5995C50.1215 50.7841 50.1938 50.6414 50.2994 50.5054L47.7311 48.5138C47.3001 49.0695 47.0629 49.6758 46.7809 50.3584L49.7846 51.5995Z" fill="#A468E0"/>
<path d="M47.125 53.625V53.625C41.9092 55.7113 36.0908 55.7113 30.875 53.625V53.625" stroke="#A468E0" stroke-width="3.25"/>
<path d="M35.75 45.5V31.6875C35.75 29.4438 33.9312 27.625 31.6875 27.625V27.625C29.4438 27.625 27.625 29.4438 27.625 31.6875V31.6875C27.625 33.9312 29.4438 35.75 31.6875 35.75H46.3125C48.5562 35.75 50.375 33.9312 50.375 31.6875V31.6875C50.375 29.4438 48.5562 27.625 46.3125 27.625V27.625C44.0688 27.625 42.25 29.4438 42.25 31.6875V45.5" stroke="#A468E0" stroke-width="3.25" stroke-linecap="round"/>
</g>
<defs>
<filter id="filter0_d_3_3393" x="-34.9254" y="-24.4478" width="147.851" height="147.851" filterUnits="userSpaceOnUse" color-interpolation-filters="sRGB">
<feFlood flood-opacity="0" result="BackgroundImageFix"/>
<feColorMatrix in="SourceAlpha" type="matrix" values="0 0 0 0 0 0 0 0 0 0 0 0 0 0 0 0 0 0 127 0" result="hardAlpha"/>
<feOffset dy="10.4776"/>
<feGaussianBlur stdDeviation="17.4627"/>
<feComposite in2="hardAlpha" operator="out"/>
<feColorMatrix type="matrix" values="0 0 0 0 0 0 0 0 0 0 0 0 0 0 0 0 0 0 0.12 0"/>
<feBlend mode="normal" in2="BackgroundImageFix" result="effect1_dropShadow_3_3393"/>
<feBlend mode="normal" in="SourceGraphic" in2="effect1_dropShadow_3_3393" result="shape"/>
</filter>
</defs>
</svg>
